<?xml version="1.0" encoding="UTF-8" standalone="no"?>
<!-- Created with Inkscape (http://www.inkscape.org/) -->

<svg
   xmlns:dc="http://purl.org/dc/elements/1.1/"
   xmlns:cc="http://creativecommons.org/ns#"
   xmlns:rdf="http://www.w3.org/1999/02/22-rdf-syntax-ns#"
   xmlns:svg="http://www.w3.org/2000/svg"
   xmlns="http://www.w3.org/2000/svg"
   xmlns:sodipodi="http://sodipodi.sourceforge.net/DTD/sodipodi-0.dtd"
   xmlns:inkscape="http://www.inkscape.org/namespaces/inkscape"
   width="10.166477mm"
   height="5.4191437mm"
   viewBox="0 0 36.022951 19.20169"
   id="svg2"
   version="1.1"
   inkscape:version="0.91 r13725"
   sodipodi:docname="um.svg">
  <defs
     id="defs4" />
  <sodipodi:namedview
     id="base"
     pagecolor="#ffffff"
     bordercolor="#666666"
     borderopacity="1.0"
     inkscape:pageopacity="0.0"
     inkscape:pageshadow="2"
     inkscape:zoom="2.8"
     inkscape:cx="2.5161655"
     inkscape:cy="-5.0468383"
     inkscape:document-units="px"
     inkscape:current-layer="text4712"
     showgrid="false"
     fit-margin-top="0"
     fit-margin-left="0"
     fit-margin-right="0"
     fit-margin-bottom="0"
     inkscape:window-width="1280"
     inkscape:window-height="694"
     inkscape:window-x="0"
     inkscape:window-y="1"
     inkscape:window-maximized="1" />
  <metadata
     id="metadata7">
    <rdf:RDF>
      <cc:Work
         rdf:about="">
        <dc:format>image/svg+xml</dc:format>
        <dc:type
           rdf:resource="http://purl.org/dc/dcmitype/StillImage" />
        <dc:title />
      </cc:Work>
    </rdf:RDF>
  </metadata>
  <g
     inkscape:label="Layer 1"
     inkscape:groupmode="layer"
     id="layer1"
     transform="translate(-204.98117,-221.21788)">
    <g
       style="font-style:normal;font-weight:normal;font-size:40px;line-height:142.99999475%;font-family:sans-serif;letter-spacing:0px;word-spacing:0px;fill:#000000;fill-opacity:1;stroke:none;stroke-width:1px;stroke-linecap:butt;stroke-linejoin:miter;stroke-opacity:1"
       id="text4712">
      <path
         style="font-size:25px;line-height:142.99999475%"
         d="M 18.716797 0 C 17.732097 0 16.882162 0.19889625 16.166016 0.59765625 C 15.449869 0.99642292 14.834966 1.6149117 14.322266 2.453125 L 14.322266 0.33007812 L 12.064453 0.33007812 L 12.064453 12.222656 C 11.898974 12.171829 11.755483 12.090779 11.658203 11.939453 C 11.519856 11.703446 11.451172 11.339842 11.451172 10.851562 L 11.451172 0.33007812 L 9.203125 0.33007812 L 9.203125 8.3007812 C 9.203125 9.6679679 8.8994158 10.69336 8.2890625 11.376953 C 7.6868492 12.060546 6.7825517 12.402344 5.578125 12.402344 C 4.4794917 12.402344 3.6494106 12.10026 3.0878906 11.498047 C 2.526364 10.895834 2.2460938 10.006185 2.2460938 8.8261719 L 2.2460938 0.33007812 L 0 0.33007812 L 0 19.201172 L 2.2460938 19.201172 L 2.2460938 12.451172 C 2.5878937 13.085939 3.0472 13.561526 3.625 13.878906 C 4.21094 14.196293 4.9199267 14.355469 5.75 14.355469 C 6.5475267 14.355469 7.2382788 14.196293 7.8242188 13.878906 C 8.4182921 13.553386 8.9192719 13.070634 9.3261719 12.427734 C 9.4482452 13.078774 9.6761056 13.561526 10.009766 13.878906 C 10.343419 14.196293 10.791989 14.355469 11.353516 14.355469 C 11.638349 14.355469 11.925783 14.310223 12.21875 14.220703 C 12.399414 14.166991 12.588867 14.09082 12.78125 14.001953 L 14.322266 14.001953 L 14.322266 6.2734375 C 14.322266 4.9469442 14.660477 3.8981133 15.335938 3.125 C 16.011391 2.3437533 16.922852 1.953125 18.070312 1.953125 C 19.038739 1.953125 19.754883 2.2695369 20.21875 2.9042969 C 20.682617 3.5309302 20.914062 4.5039123 20.914062 5.8222656 L 20.914062 14.001953 L 23.171875 14.001953 L 23.171875 6.2734375 C 23.171875 4.9388042 23.510087 3.8863946 24.185547 3.1132812 C 24.861 2.3401746 25.781579 1.953125 26.945312 1.953125 C 27.897466 1.953125 28.604493 2.2695369 29.068359 2.9042969 C 29.532226 3.5390635 29.765625 4.5120456 29.765625 5.8222656 L 29.765625 14.001953 L 32.023438 14.001953 L 32.023438 5.75 C 32.023437 3.9108067 31.636395 2.4947865 30.863281 1.5019531 C 30.090168 0.50097312 28.99056 0 27.566406 0 C 26.508466 0 25.589847 0.24055646 24.808594 0.72070312 C 24.027347 1.2008431 23.356449 1.9440117 22.794922 2.953125 C 22.461269 1.9928383 21.944014 1.2623658 21.244141 0.7578125 C 20.552407 0.2532525 19.70963 0 18.716797 0 z "
         transform="translate(204.98117,221.21788)"
         id="path4717" />
    </g>
  </g>
</svg>
